<?xml version="1.0" encoding="UTF-8" standalone="no"?>
<svg width="27px" height="43px" viewBox="0 0 27 43" version="1.1" xmlns="http://www.w3.org/2000/svg" xmlns:xlink="http://www.w3.org/1999/xlink">
    <!-- Generator: Sketch 3.8.3 (29802) - http://www.bohemiancoding.com/sketch -->
    <title>Mute</title>
    <desc>Created with Sketch.</desc>
    <defs></defs>
    <g id="Utils" stroke="none" stroke-width="1" fill="none" fill-rule="evenodd">
        <g id="Icons" transform="translate(-246.000000, -225.000000)" fill="#9012FE">
            <g id="Mute" transform="translate(246.000000, 224.000000)">
                <g id="Mic-Stand" transform="translate(0.488374, 14.731546)">
                    <g id="Mic-Cup">
                        <path d="M21.5727993,10.9953644 C21.5700632,11.1517834 21.5593036,11.4491871 21.5355632,11.8331769 C21.4960143,12.4728623 21.4335526,13.1119806 21.3436871,13.7048012 C21.1544882,14.9529005 20.8521949,15.820503 20.5799108,15.989135 L21.2091846,17.005201 C21.9060531,16.5736138 22.2805302,15.4988388 22.5253341,13.8839267 C22.6210996,13.252185 22.6868642,12.5792722 22.7284323,11.9069266 C22.7533621,11.5036978 22.7647539,11.1888203 22.7678602,11.0054879 L22.767946,0 L21.5727993,0 L21.5727993,10.9953644 Z" id="Path-8"></path>
                        <path d="M0.0601583917,10.6375743 C0.0601583917,15.6375503 4.04591049,20.3071467 8.96050369,21.0190971 L9.0461766,20.427697 L8.47443055,20.2539145 C8.4656325,20.2845007 8.4656325,20.2845007 8.45555624,20.3367368 C8.3596446,20.9580638 8.67306381,21.0625996 9.62228595,21.1657122 C10.1378585,21.2217181 10.9128347,21.2641687 11.9979667,21.2889783 C13.4058782,21.2600783 14.7900498,20.925675 16.1186059,20.3876207 C16.6035862,20.1912076 17.0475065,19.9806781 17.4419137,19.7695611 C17.681736,19.6411898 17.8542766,19.5394847 17.9508701,19.4778697 L17.3081388,18.4702626 C17.2362677,18.5161077 17.0897768,18.6024576 16.8778981,18.7158713 C16.5194705,18.9077293 16.1136819,19.1001748 15.6699767,19.2798718 C14.4662449,19.7673733 13.2195192,20.068571 11.9991188,20.0941186 C10.9713,20.0700464 10.2279691,20.0293291 9.75135366,19.9775551 C9.50800861,19.9511209 9.3646122,19.9250331 9.31455309,19.9083367 C9.50381699,19.9714625 9.42558301,19.9063095 9.63671303,20.5190671 C9.62669972,20.5709623 9.82019149,19.9360132 9.82019149,19.9360132 L9.13184951,19.8362969 C4.80850606,19.2099976 1.25530511,15.0471661 1.25530511,10.6375743 L1.25530511,0 L0.0601583917,0 L0.0601583917,10.6375743 Z" id="Path-9"></path>
                    </g>
                    <path d="M4.54195857,27.7473229 L4.2431719,27.7473229 L4.54195857,28.0461096 L4.54195857,27.4485362 L4.2431719,27.7473229 L4.54195857,27.7473229 L11.1152655,27.7473229 L11.4140522,27.7473229 L11.4140522,27.4485362 L11.4140522,21.8114276 L11.4140522,21.5126409 L11.1152655,21.8114276 L11.7128389,21.8114276 L11.4140522,21.5126409 L11.4140522,21.8114276 L11.4140522,27.4485362 L11.4140522,27.7473229 L11.7128389,27.7473229 L18.8837192,27.7473229 L19.1825058,27.7473229 L18.8837192,27.4485362 L18.8837192,28.0461096 L19.1825058,27.7473229 L18.8837192,27.7473229 L11.7128389,27.7473229 L11.4140522,27.7473229 L11.4140522,28.0461096 L11.4140522,28.0859478 L11.7128389,28.0859478 L11.7128389,27.7871611 L11.1152655,27.7871611 L11.1152655,28.0859478 L11.4140522,28.0859478 L11.4140522,28.0461096 L11.4140522,27.7473229 L11.1152655,27.7473229 L4.54195857,27.7473229 Z M11.1152655,28.0461096 L10.8164788,28.0461096 L10.8164788,28.0859478 L10.8164788,28.3847345 L11.1152655,28.3847345 L11.7128389,28.3847345 L12.0116255,28.3847345 L12.0116255,28.0859478 L12.0116255,28.0461096 L11.7128389,28.0461096 L11.7128389,28.3448963 L18.8837192,28.3448963 L19.1825058,28.3448963 L19.4812925,28.3448963 L19.4812925,28.0461096 L19.4812925,27.4485362 L19.4812925,27.1497496 L19.1825058,27.1497496 L18.8837192,27.1497496 L11.7128389,27.1497496 L12.0116255,27.4485362 L12.0116255,21.8114276 L12.0116255,21.5126409 L12.0116255,21.2138542 L11.7128389,21.2138542 L11.1152655,21.2138542 L10.8164788,21.2138542 L10.8164788,21.5126409 L10.8164788,21.8114276 L10.8164788,27.4485362 L11.1152655,27.1497496 L4.54195857,27.1497496 L4.2431719,27.1497496 L3.94438522,27.1497496 L3.94438522,27.4485362 L3.94438522,28.0461096 L3.94438522,28.3448963 L4.2431719,28.3448963 L4.54195857,28.3448963 L11.1152655,28.3448963 L11.1152655,28.0461096 Z"></path>
                </g>
                <path d="M5.4486052,5.98306364 C5.46056834,2.1651447 8.98225371,0.987359123 11.9024266,0.987359123 C14.8225996,0.987359123 18.4509319,1.99255454 18.4518073,7.44114409 C18.4518073,13.8884369 18.4482873,26.8962855 18.4482873,26.8962855 C18.4482873,26.8962855 8.35696089,10.7088681 5.4486052,5.98306364 Z" id="Mic-Top"></path>
                <path d="M5.32911971,12.9388263 C5.32911971,12.9388263 14.4012527,27.6942179 16.3361697,30.746505 C15.2826767,31.5003132 13.2934191,31.7342328 12.3905811,31.7281024 C11.487743,31.7342328 5.12093192,31.5362545 5.32911971,24.5080566 C5.32955738,20.4461334 5.32911971,12.9388263 5.32911971,12.9388263 Z" id="Mic-Bottom"></path>
                <polygon id="Line" points="24.7813029 41.7274342 25.0979749 42.2342011 26.1115088 41.6008571 25.7948368 41.0940901 1.41382922 2.0774191 1.09715718 1.57065215 0.0836232865 2.20399623 0.400295325 2.71076318"></polygon>
            </g>
        </g>
    </g>
</svg>